<mxfile host="Electron" modified="2023-10-21T06:48:44.181Z" agent="Mozilla/5.0 (Windows NT 10.0; Win64; x64) AppleWebKit/537.36 (KHTML, like Gecko) draw.io/21.6.5 Chrome/114.0.5735.243 Electron/25.3.1 Safari/537.36" etag="UauwTwYpu_0Mt9KhrCDc" version="21.6.5" type="device">
  <diagram name="Página-1" id="GkJDa5S736aGQgMjrqLP">
    <mxGraphModel dx="880" dy="1711" grid="1" gridSize="10" guides="1" tooltips="1" connect="1" arrows="1" fold="1" page="1" pageScale="1" pageWidth="827" pageHeight="1169" math="0" shadow="0">
      <root>
        <mxCell id="0" />
        <mxCell id="1" parent="0" />
        <mxCell id="vdSmNFJZGKmZmykaYI-2-1" value="Administrador" style="shape=umlActor;verticalLabelPosition=bottom;verticalAlign=top;html=1;outlineConnect=0;fillColor=#0050ef;fontColor=#ffffff;strokeColor=#001DBC;" vertex="1" parent="1">
          <mxGeometry x="720" y="225" width="80" height="70" as="geometry" />
        </mxCell>
        <mxCell id="vdSmNFJZGKmZmykaYI-2-2" value="Usuario" style="shape=umlActor;verticalLabelPosition=bottom;verticalAlign=top;html=1;outlineConnect=0;fillColor=#60a917;fontColor=#ffffff;strokeColor=#2D7600;" vertex="1" parent="1">
          <mxGeometry x="30" y="230" width="70" height="60" as="geometry" />
        </mxCell>
        <mxCell id="vdSmNFJZGKmZmykaYI-2-3" value="Nombre" style="ellipse;whiteSpace=wrap;html=1;" vertex="1" parent="1">
          <mxGeometry x="200" y="80" width="160" height="40" as="geometry" />
        </mxCell>
        <mxCell id="vdSmNFJZGKmZmykaYI-2-4" value="Email" style="ellipse;whiteSpace=wrap;html=1;" vertex="1" parent="1">
          <mxGeometry x="200" y="160" width="160" height="40" as="geometry" />
        </mxCell>
        <mxCell id="vdSmNFJZGKmZmykaYI-2-5" value="Dirección" style="ellipse;whiteSpace=wrap;html=1;" vertex="1" parent="1">
          <mxGeometry x="200" y="240" width="160" height="40" as="geometry" />
        </mxCell>
        <mxCell id="vdSmNFJZGKmZmykaYI-2-6" value="Teléfono" style="ellipse;whiteSpace=wrap;html=1;" vertex="1" parent="1">
          <mxGeometry x="200" y="320" width="160" height="40" as="geometry" />
        </mxCell>
        <mxCell id="vdSmNFJZGKmZmykaYI-2-7" value="Contraseñea" style="ellipse;whiteSpace=wrap;html=1;" vertex="1" parent="1">
          <mxGeometry x="200" y="395" width="160" height="45" as="geometry" />
        </mxCell>
        <mxCell id="vdSmNFJZGKmZmykaYI-2-19" value="" style="endArrow=classic;html=1;rounded=0;" edge="1" parent="1">
          <mxGeometry width="50" height="50" relative="1" as="geometry">
            <mxPoint x="70" y="220" as="sourcePoint" />
            <mxPoint x="190" y="100" as="targetPoint" />
          </mxGeometry>
        </mxCell>
        <mxCell id="vdSmNFJZGKmZmykaYI-2-20" value="" style="endArrow=classic;html=1;rounded=0;" edge="1" parent="1" source="vdSmNFJZGKmZmykaYI-2-2">
          <mxGeometry width="50" height="50" relative="1" as="geometry">
            <mxPoint x="110" y="200" as="sourcePoint" />
            <mxPoint x="190" y="190" as="targetPoint" />
          </mxGeometry>
        </mxCell>
        <mxCell id="vdSmNFJZGKmZmykaYI-2-21" value="" style="endArrow=classic;html=1;rounded=0;" edge="1" parent="1">
          <mxGeometry width="50" height="50" relative="1" as="geometry">
            <mxPoint x="100" y="259.5" as="sourcePoint" />
            <mxPoint x="190" y="259.5" as="targetPoint" />
          </mxGeometry>
        </mxCell>
        <mxCell id="vdSmNFJZGKmZmykaYI-2-22" value="" style="endArrow=classic;html=1;rounded=0;" edge="1" parent="1">
          <mxGeometry width="50" height="50" relative="1" as="geometry">
            <mxPoint x="90" y="320" as="sourcePoint" />
            <mxPoint x="190" y="410" as="targetPoint" />
          </mxGeometry>
        </mxCell>
        <mxCell id="vdSmNFJZGKmZmykaYI-2-23" value="" style="endArrow=classic;html=1;rounded=0;" edge="1" parent="1">
          <mxGeometry width="50" height="50" relative="1" as="geometry">
            <mxPoint x="110" y="290" as="sourcePoint" />
            <mxPoint x="190" y="330" as="targetPoint" />
          </mxGeometry>
        </mxCell>
        <mxCell id="vdSmNFJZGKmZmykaYI-2-24" value="" style="endArrow=classic;startArrow=classic;html=1;rounded=0;" edge="1" parent="1">
          <mxGeometry width="50" height="50" relative="1" as="geometry">
            <mxPoint x="370" y="99.5" as="sourcePoint" />
            <mxPoint x="441" y="99.5" as="targetPoint" />
          </mxGeometry>
        </mxCell>
        <mxCell id="vdSmNFJZGKmZmykaYI-2-25" value="" style="endArrow=classic;startArrow=classic;html=1;rounded=0;" edge="1" parent="1">
          <mxGeometry width="50" height="50" relative="1" as="geometry">
            <mxPoint x="370" y="179.5" as="sourcePoint" />
            <mxPoint x="441" y="179.5" as="targetPoint" />
          </mxGeometry>
        </mxCell>
        <mxCell id="vdSmNFJZGKmZmykaYI-2-26" value="" style="endArrow=classic;startArrow=classic;html=1;rounded=0;" edge="1" parent="1">
          <mxGeometry width="50" height="50" relative="1" as="geometry">
            <mxPoint x="370" y="259.5" as="sourcePoint" />
            <mxPoint x="441" y="259.5" as="targetPoint" />
          </mxGeometry>
        </mxCell>
        <mxCell id="vdSmNFJZGKmZmykaYI-2-27" value="" style="endArrow=classic;startArrow=classic;html=1;rounded=0;" edge="1" parent="1">
          <mxGeometry width="50" height="50" relative="1" as="geometry">
            <mxPoint x="370" y="340" as="sourcePoint" />
            <mxPoint x="441" y="340" as="targetPoint" />
          </mxGeometry>
        </mxCell>
        <mxCell id="vdSmNFJZGKmZmykaYI-2-28" value="" style="endArrow=classic;startArrow=classic;html=1;rounded=0;" edge="1" parent="1">
          <mxGeometry width="50" height="50" relative="1" as="geometry">
            <mxPoint x="370" y="414.5" as="sourcePoint" />
            <mxPoint x="441" y="414.5" as="targetPoint" />
          </mxGeometry>
        </mxCell>
        <mxCell id="vdSmNFJZGKmZmykaYI-2-29" value="Registro de Usuario" style="text;html=1;strokeColor=none;fillColor=none;align=center;verticalAlign=middle;whiteSpace=wrap;rounded=0;" vertex="1" parent="1">
          <mxGeometry x="450" y="85" width="100" height="30" as="geometry" />
        </mxCell>
        <mxCell id="vdSmNFJZGKmZmykaYI-2-30" value="Registro de Correo" style="text;html=1;strokeColor=none;fillColor=none;align=center;verticalAlign=middle;whiteSpace=wrap;rounded=0;" vertex="1" parent="1">
          <mxGeometry x="450" y="165" width="100" height="30" as="geometry" />
        </mxCell>
        <mxCell id="vdSmNFJZGKmZmykaYI-2-31" value="Registro de Dirección" style="text;html=1;strokeColor=none;fillColor=none;align=center;verticalAlign=middle;whiteSpace=wrap;rounded=0;" vertex="1" parent="1">
          <mxGeometry x="450" y="245" width="100" height="30" as="geometry" />
        </mxCell>
        <mxCell id="vdSmNFJZGKmZmykaYI-2-32" value="Registro de Teléfono" style="text;html=1;strokeColor=none;fillColor=none;align=center;verticalAlign=middle;whiteSpace=wrap;rounded=0;" vertex="1" parent="1">
          <mxGeometry x="450" y="325" width="100" height="30" as="geometry" />
        </mxCell>
        <mxCell id="vdSmNFJZGKmZmykaYI-2-33" value="Registro de Contraseña" style="text;html=1;strokeColor=none;fillColor=none;align=center;verticalAlign=middle;whiteSpace=wrap;rounded=0;" vertex="1" parent="1">
          <mxGeometry x="450" y="400" width="100" height="30" as="geometry" />
        </mxCell>
        <mxCell id="vdSmNFJZGKmZmykaYI-2-34" value="FORMULARIO DE REGISTRO &lt;br style=&quot;font-size: 18px;&quot;&gt;PARA GUARDAR INFORMACIÓN" style="text;html=1;strokeColor=#001DBC;fillColor=#0050ef;align=center;verticalAlign=middle;whiteSpace=wrap;rounded=0;fontColor=#ffffff;fontStyle=1;fontSize=18;" vertex="1" parent="1">
          <mxGeometry x="40" width="750" height="40" as="geometry" />
        </mxCell>
        <mxCell id="vdSmNFJZGKmZmykaYI-2-35" value="Enviar" style="ellipse;whiteSpace=wrap;html=1;" vertex="1" parent="1">
          <mxGeometry x="200" y="480" width="160" height="40" as="geometry" />
        </mxCell>
        <mxCell id="vdSmNFJZGKmZmykaYI-2-36" value="" style="endArrow=classic;startArrow=classic;html=1;rounded=0;" edge="1" parent="1">
          <mxGeometry width="50" height="50" relative="1" as="geometry">
            <mxPoint x="370" y="499.5" as="sourcePoint" />
            <mxPoint x="441" y="499.5" as="targetPoint" />
          </mxGeometry>
        </mxCell>
        <mxCell id="vdSmNFJZGKmZmykaYI-2-37" value="Guardar Información de Nuevo Registro" style="text;html=1;strokeColor=none;fillColor=none;align=center;verticalAlign=middle;whiteSpace=wrap;rounded=0;" vertex="1" parent="1">
          <mxGeometry x="450" y="485" width="100" height="35" as="geometry" />
        </mxCell>
        <mxCell id="vdSmNFJZGKmZmykaYI-2-39" value="" style="endArrow=classic;startArrow=classic;html=1;rounded=0;exitX=1;exitY=0.75;exitDx=0;exitDy=0;" edge="1" parent="1">
          <mxGeometry width="50" height="50" relative="1" as="geometry">
            <mxPoint x="540" y="106.25" as="sourcePoint" />
            <mxPoint x="760" y="210" as="targetPoint" />
          </mxGeometry>
        </mxCell>
        <mxCell id="vdSmNFJZGKmZmykaYI-2-40" value="" style="endArrow=classic;startArrow=classic;html=1;rounded=0;exitX=1;exitY=0.75;exitDx=0;exitDy=0;" edge="1" parent="1">
          <mxGeometry width="50" height="50" relative="1" as="geometry">
            <mxPoint x="540" y="186.25" as="sourcePoint" />
            <mxPoint x="730" y="220" as="targetPoint" />
          </mxGeometry>
        </mxCell>
        <mxCell id="vdSmNFJZGKmZmykaYI-2-41" value="" style="endArrow=classic;startArrow=classic;html=1;rounded=0;exitX=1;exitY=0.75;exitDx=0;exitDy=0;" edge="1" parent="1">
          <mxGeometry width="50" height="50" relative="1" as="geometry">
            <mxPoint x="550" y="255" as="sourcePoint" />
            <mxPoint x="720" y="255" as="targetPoint" />
          </mxGeometry>
        </mxCell>
        <mxCell id="vdSmNFJZGKmZmykaYI-2-42" value="" style="endArrow=classic;startArrow=classic;html=1;rounded=0;exitX=1;exitY=0.75;exitDx=0;exitDy=0;" edge="1" parent="1">
          <mxGeometry width="50" height="50" relative="1" as="geometry">
            <mxPoint x="540" y="339.5" as="sourcePoint" />
            <mxPoint x="710" y="290" as="targetPoint" />
          </mxGeometry>
        </mxCell>
        <mxCell id="vdSmNFJZGKmZmykaYI-2-43" value="" style="endArrow=classic;startArrow=classic;html=1;rounded=0;exitX=1;exitY=0.75;exitDx=0;exitDy=0;" edge="1" parent="1">
          <mxGeometry width="50" height="50" relative="1" as="geometry">
            <mxPoint x="540" y="419.5" as="sourcePoint" />
            <mxPoint x="720" y="320" as="targetPoint" />
          </mxGeometry>
        </mxCell>
        <mxCell id="vdSmNFJZGKmZmykaYI-2-44" value="" style="endArrow=classic;startArrow=classic;html=1;rounded=0;exitX=1;exitY=0.75;exitDx=0;exitDy=0;" edge="1" parent="1">
          <mxGeometry width="50" height="50" relative="1" as="geometry">
            <mxPoint x="550" y="509.5" as="sourcePoint" />
            <mxPoint x="760" y="320" as="targetPoint" />
          </mxGeometry>
        </mxCell>
        <mxCell id="vdSmNFJZGKmZmykaYI-2-45" value="" style="endArrow=classic;html=1;rounded=0;" edge="1" parent="1">
          <mxGeometry width="50" height="50" relative="1" as="geometry">
            <mxPoint x="70" y="320" as="sourcePoint" />
            <mxPoint x="190" y="490" as="targetPoint" />
          </mxGeometry>
        </mxCell>
      </root>
    </mxGraphModel>
  </diagram>
</mxfile>
